<svg width="24" height="24" viewBox="0 0 24 24" fill="none" xmlns="http://www.w3.org/2000/svg">
<g clip-path="url(#clip0_680_1633)">
<path fill-rule="evenodd" clip-rule="evenodd" d="M4.79995 1.59985C4.3756 1.59985 3.96864 1.76842 3.66858 2.06848C3.36852 2.36854 3.19995 2.77551 3.19995 3.19985V20.7999C3.19995 21.2242 3.36852 21.6312 3.66858 21.9312C3.96864 22.2313 4.3756 22.3999 4.79995 22.3999H16.8C17.0121 22.3999 17.2156 22.3156 17.3656 22.1655C17.5157 22.0155 17.6 21.812 17.6 21.5999C17.6 21.3877 17.5157 21.1842 17.3656 21.0342C17.2156 20.8841 17.0121 20.7999 16.8 20.7999H4.79995V3.19985H16.8C17.0121 3.19985 17.2156 3.11557 17.3656 2.96554C17.5157 2.81551 17.6 2.61203 17.6 2.39985C17.6 2.18768 17.5157 1.9842 17.3656 1.83417C17.2156 1.68414 17.0121 1.59985 16.8 1.59985H4.79995ZM20.1664 7.83345C20.0161 7.68323 19.8124 7.59884 19.6 7.59884C19.3875 7.59884 19.1838 7.68323 19.0336 7.83345C18.8833 7.98367 18.7989 8.18741 18.7989 8.39985C18.7989 8.61229 18.8833 8.81603 19.0336 8.96625L21.2688 11.1999H10.4C10.1878 11.1999 9.98429 11.2841 9.83427 11.4342C9.68424 11.5842 9.59995 11.7877 9.59995 11.9999C9.59995 12.212 9.68424 12.4155 9.83427 12.5655C9.98429 12.7156 10.1878 12.7999 10.4 12.7999H21.2688L19.0336 15.0335C18.8833 15.1837 18.7989 15.3874 18.7989 15.5999C18.7989 15.8123 18.8833 16.016 19.0336 16.1663C19.1838 16.3165 19.3875 16.4009 19.6 16.4009C19.8124 16.4009 20.0161 16.3165 20.1664 16.1663L23.7664 12.5663C23.8409 12.4919 23.9 12.4037 23.9403 12.3065C23.9806 12.2093 24.0014 12.1051 24.0014 11.9999C24.0014 11.8946 23.9806 11.7904 23.9403 11.6932C23.9 11.596 23.8409 11.5078 23.7664 11.4335L20.1664 7.83345Z" fill="#1D2E50"/>
</g>
<defs>
<clipPath id="clip0_680_1633">
<rect width="24" height="24" fill="white"/>
</clipPath>
</defs>
</svg>
