<svg width="64" height="64" viewBox="0 0 64 64" fill="none" xmlns="http://www.w3.org/2000/svg">
<path d="M37.8522 51.571L22.3882 42.64L23.9202 39.989L39.3812 48.92L37.8522 51.571Z" fill="#1D2E50"/>
<path d="M52.2709 54.5966C56.622 50.5338 59.3792 44.826 59.3792 38.4554C59.3792 30.6064 55.2093 23.527 48.7254 19.5509L55.9897 7.11998L54.8488 6.46982L56.6405 3.38954L51.9435 0.708984L50.1479 3.78445L48.9466 3.09866L31.0881 33.6819L32.6479 34.5719L30.4334 38.3591L34.3578 40.5995L36.5733 36.8103L38.1311 37.7003L45.6409 24.8427C47.9564 26.3012 49.8629 28.313 51.1841 30.6924C52.5054 33.0718 53.1988 35.7421 53.2003 38.4564C53.2003 47.3563 45.8718 54.5975 36.8685 54.5975H23.7099V60.709H60.75V54.5975H52.2728L52.2709 54.5966ZM19.3909 7.60157V2.74998H19.9949L19.9862 1.58645H14.4825L14.4912 2.74998H15.1401V7.60157H11.0335V2.74998H11.6356L11.6288 1.58645H6.12023L6.13094 2.74998H6.77981V7.60157H0.75V31.9038H25.3691V7.60157H19.3928H19.3909ZM23.2841 29.8464H2.83203V9.65895H6.77884V25.1856C6.77884 26.3607 7.75019 27.3152 8.92225 27.3152C10.0963 27.3104 11.0325 26.3587 11.0325 25.1856V9.65895H15.1391V25.1856C15.1391 26.3607 16.1115 27.3152 17.2835 27.3152C18.4575 27.3104 19.3938 26.3587 19.3919 25.1856V9.65895H23.2841V29.8464Z" fill="#1D2E50"/>
</svg>
