<svg width="49" height="49" viewBox="0 0 49 49" fill="none" xmlns="http://www.w3.org/2000/svg">
<circle cx="24.3252" cy="24.5" r="24" fill="#DDE6EB"/>
<g clip-path="url(#clip0_668_1189)">
<path d="M24.3323 17.0469C19.7895 17.0469 16.1252 20.5203 16.1252 24.8266C16.1252 29.1328 19.7895 32.6062 24.3323 32.6062C28.8752 32.6062 32.5395 29.1328 32.5395 24.8266C32.5395 20.5203 28.8752 17.0469 24.3323 17.0469ZM24.3323 29.8844C21.3966 29.8844 18.9966 27.6161 18.9966 24.8266C18.9966 22.037 21.3895 19.7687 24.3323 19.7687C27.2752 19.7687 29.668 22.037 29.668 24.8266C29.668 27.6161 27.268 29.8844 24.3323 29.8844ZM34.7895 16.7286C34.7895 17.7375 33.9323 18.5432 32.8752 18.5432C31.8109 18.5432 30.9609 17.7307 30.9609 16.7286C30.9609 15.7266 31.818 14.9141 32.8752 14.9141C33.9323 14.9141 34.7895 15.7266 34.7895 16.7286ZM40.2252 18.5703C40.1038 16.1396 39.518 13.9865 37.6395 12.2125C35.768 10.4385 33.4966 9.88333 30.9323 9.76146C28.2895 9.61927 20.368 9.61927 17.7252 9.76146C15.168 9.87656 12.8966 10.4318 11.018 12.2057C9.13947 13.9797 8.5609 16.1328 8.43232 18.5635C8.28232 21.0687 8.28232 28.5776 8.43232 31.0828C8.55375 33.5135 9.13947 35.6667 11.018 37.4406C12.8966 39.2146 15.1609 39.7698 17.7252 39.8917C20.368 40.0339 28.2895 40.0339 30.9323 39.8917C33.4966 39.7766 35.768 39.2214 37.6395 37.4406C39.5109 35.6667 40.0966 33.5135 40.2252 31.0828C40.3752 28.5776 40.3752 21.0755 40.2252 18.5703ZM36.8109 33.7708C36.2538 35.0979 35.1752 36.1203 33.768 36.6552C31.6609 37.4474 26.6609 37.2646 24.3323 37.2646C22.0038 37.2646 16.9966 37.4406 14.8966 36.6552C13.4966 36.1271 12.418 35.1047 11.8538 33.7708C11.018 31.7734 11.2109 27.0339 11.2109 24.8266C11.2109 22.6193 11.0252 17.8729 11.8538 15.8823C12.4109 14.5552 13.4895 13.5328 14.8966 12.9979C17.0038 12.2057 22.0038 12.3885 24.3323 12.3885C26.6609 12.3885 31.668 12.2125 33.768 12.9979C35.168 13.526 36.2466 14.5484 36.8109 15.8823C37.6466 17.8797 37.4538 22.6193 37.4538 24.8266C37.4538 27.0339 37.6466 31.7802 36.8109 33.7708Z" fill="#1D2E50"/>
</g>
<defs>
<clipPath id="clip0_668_1189">
<rect width="32" height="34.6667" fill="white" transform="translate(8.3252 7.5)"/>
</clipPath>
</defs>
</svg>
