<svg width="157" height="37" viewBox="0 0 157 37" fill="none" xmlns="http://www.w3.org/2000/svg">
<path d="M4.41368 6.85299H7.76022L14.0499 23.6305L20.3247 6.85299H23.6712L15.3646 28.6055H12.7053L4.41368 6.85299ZM2.88981 6.85299H6.07201L6.62479 21.3746V28.6055H2.88981V6.85299ZM22.0129 6.85299H25.21V28.6055H21.4601V21.3746L22.0129 6.85299ZM36.4299 28.9043C35.2347 28.9043 34.154 28.71 33.1879 28.3216C32.2318 27.9232 31.415 27.3704 30.7378 26.6633C30.0704 25.9561 29.5575 25.1245 29.199 24.1683C28.8404 23.2122 28.6611 22.1813 28.6611 21.0758V20.4782C28.6611 19.2133 28.8454 18.0679 29.2139 17.042C29.5824 16.0161 30.0953 15.1397 30.7527 14.4126C31.4101 13.6755 32.1869 13.1128 33.0833 12.7244C33.9797 12.3359 34.9508 12.1417 35.9966 12.1417C37.152 12.1417 38.1629 12.3359 39.0294 12.7244C39.8959 13.1128 40.613 13.6606 41.1807 14.3678C41.7584 15.065 42.1867 15.8966 42.4656 16.8627C42.7544 17.8288 42.8988 18.8945 42.8988 20.0599V21.5987H30.4091V19.0141H39.3431V18.7302C39.3232 18.0828 39.1937 17.4753 38.9547 16.9075C38.7256 16.3398 38.372 15.8817 37.894 15.5331C37.4159 15.1845 36.7785 15.0102 35.9817 15.0102C35.3841 15.0102 34.8512 15.1397 34.3831 15.3986C33.9249 15.6476 33.5415 16.0111 33.2327 16.4892C32.924 16.9673 32.6849 17.545 32.5156 18.2222C32.3562 18.8896 32.2766 19.6415 32.2766 20.4782V21.0758C32.2766 21.7829 32.3712 22.4403 32.5604 23.0478C32.7596 23.6454 33.0485 24.1683 33.4269 24.6165C33.8054 25.0647 34.2636 25.4183 34.8014 25.6773C35.3392 25.9262 35.9518 26.0507 36.639 26.0507C37.5055 26.0507 38.2774 25.8764 38.9547 25.5279C39.632 25.1793 40.2196 24.6862 40.7176 24.0488L42.615 25.8864C42.2664 26.3944 41.8132 26.8824 41.2554 27.3505C40.6977 27.8087 40.0154 28.1822 39.2087 28.471C38.4119 28.7598 37.4856 28.9043 36.4299 28.9043ZM55.5679 25.2589V5.6578H59.1833V28.6055H55.9115L55.5679 25.2589ZM45.0502 20.7023V20.3885C45.0502 19.1635 45.1946 18.0479 45.4834 17.042C45.7723 16.0261 46.1906 15.1546 46.7384 14.4275C47.2862 13.6905 47.9535 13.1277 48.7403 12.7393C49.5272 12.3409 50.4136 12.1417 51.3996 12.1417C52.3757 12.1417 53.2322 12.331 53.9693 12.7094C54.7063 13.0879 55.3338 13.6307 55.8517 14.3379C56.3696 15.0351 56.783 15.8717 57.0917 16.8478C57.4005 17.8139 57.6196 18.8896 57.7491 20.0748V21.0758C57.6196 22.2311 57.4005 23.2869 57.0917 24.243C56.783 25.1992 56.3696 26.0258 55.8517 26.723C55.3338 27.4202 54.7013 27.9581 53.9543 28.3366C53.2173 28.715 52.3558 28.9043 51.3697 28.9043C50.3937 28.9043 49.5122 28.7001 48.7254 28.2917C47.9485 27.8834 47.2862 27.3107 46.7384 26.5736C46.1906 25.8366 45.7723 24.9701 45.4834 23.9741C45.1946 22.9682 45.0502 21.8775 45.0502 20.7023ZM48.6507 20.3885V20.7023C48.6507 21.4393 48.7154 22.1265 48.8449 22.764C48.9843 23.4014 49.1985 23.9641 49.4873 24.4522C49.7762 24.9303 50.1497 25.3087 50.6078 25.5876C51.0759 25.8565 51.6337 25.991 52.2811 25.991C53.0978 25.991 53.7701 25.8117 54.298 25.4532C54.8258 25.0946 55.2392 24.6115 55.538 24.004C55.8467 23.3865 56.0559 22.6992 56.1654 21.9423V19.2382C56.1057 18.6505 55.9812 18.1027 55.7919 17.5948C55.6127 17.0868 55.3687 16.6436 55.0599 16.2651C54.7511 15.8767 54.3677 15.5779 53.9095 15.3687C53.4613 15.1496 52.9285 15.0401 52.311 15.0401C51.6536 15.0401 51.0958 15.1795 50.6377 15.4584C50.1795 15.7372 49.8011 16.1207 49.5023 16.6087C49.2134 17.0968 48.9993 17.6645 48.8598 18.3119C48.7204 18.9593 48.6507 19.6515 48.6507 20.3885ZM66.8026 12.4405V28.6055H63.1872V12.4405H66.8026ZM62.9482 8.19758C62.9482 7.64979 63.1274 7.19661 63.486 6.83805C63.8545 6.46954 64.3625 6.28528 65.0099 6.28528C65.6473 6.28528 66.1503 6.46954 66.5188 6.83805C66.8873 7.19661 67.0716 7.64979 67.0716 8.19758C67.0716 8.73542 66.8873 9.18362 66.5188 9.54217C66.1503 9.90073 65.6473 10.08 65.0099 10.08C64.3625 10.08 63.8545 9.90073 63.486 9.54217C63.1274 9.18362 62.9482 8.73542 62.9482 8.19758ZM84.7305 25.6324V28.6055H73.8095V25.6324H84.7305ZM74.8552 6.85299V28.6055H71.1053V6.85299H74.8552ZM91.1248 12.4405V28.6055H87.5093V12.4405H91.1248ZM87.2703 8.19758C87.2703 7.64979 87.4496 7.19661 87.8081 6.83805C88.1766 6.46954 88.6846 6.28528 89.332 6.28528C89.9694 6.28528 90.4724 6.46954 90.8409 6.83805C91.2094 7.19661 91.3937 7.64979 91.3937 8.19758C91.3937 8.73542 91.2094 9.18362 90.8409 9.54217C90.4724 9.90073 89.9694 10.08 89.332 10.08C88.6846 10.08 88.1766 9.90073 87.8081 9.54217C87.4496 9.18362 87.2703 8.73542 87.2703 8.19758ZM98.6395 15.8916V28.6055H95.039V12.4405H98.4304L98.6395 15.8916ZM97.9971 19.9254L96.8318 19.9105C96.8418 18.7651 97.0011 17.7143 97.3099 16.7581C97.6286 15.802 98.0669 14.9803 98.6246 14.2931C99.1923 13.6058 99.8696 13.0779 100.656 12.7094C101.443 12.331 102.32 12.1417 103.286 12.1417C104.063 12.1417 104.765 12.2513 105.392 12.4704C106.03 12.6795 106.573 13.0232 107.021 13.5012C107.479 13.9793 107.828 14.6018 108.067 15.3687C108.306 16.1257 108.425 17.0569 108.425 18.1625V28.6055H104.81V18.1475C104.81 17.3707 104.695 16.7581 104.466 16.3099C104.247 15.8518 103.923 15.5281 103.495 15.3388C103.077 15.1397 102.554 15.0401 101.926 15.0401C101.309 15.0401 100.756 15.1695 100.268 15.4285C99.78 15.6874 99.3666 16.041 99.028 16.4892C98.6993 16.9374 98.4453 17.4553 98.2661 18.043C98.0868 18.6306 97.9971 19.2581 97.9971 19.9254ZM115.731 5.6578V28.6055H112.115V5.6578H115.731ZM125.77 12.4405L118.734 20.2391L114.879 24.1833L113.938 21.1355L116.851 17.535L121.423 12.4405H125.77ZM122.2 28.6055L116.956 21.016L119.227 18.4912L126.368 28.6055H122.2Z" fill="#1D2E50"/>
<circle cx="143.576" cy="7.29863" r="2.86846" fill="#1D2E50"/>
<circle cx="143.576" cy="16.9798" r="2.86846" fill="#1D2E50"/>
<circle cx="143.576" cy="26.6607" r="2.86846" fill="#1D2E50"/>
<circle cx="134.54" cy="16.9798" r="2.86846" fill="#1D2E50"/>
<circle cx="153.257" cy="16.9798" r="2.86846" fill="#1D2E50"/>
</svg>
