<svg width="33" height="33" viewBox="0 0 33 33" fill="none" xmlns="http://www.w3.org/2000/svg">
<path d="M8.43864 25.6592V13.6592C8.43864 11.5374 9.28149 9.50262 10.7818 8.00233C12.2821 6.50203 14.3169 5.65918 16.4386 5.65918C18.5604 5.65918 20.5952 6.50203 22.0955 8.00233C23.5958 9.50262 24.4386 11.5374 24.4386 13.6592V25.6592M8.43864 25.6592H24.4386M8.43864 25.6592H5.77197M24.4386 25.6592H27.1053M15.1053 29.6592H17.772" stroke="#1D2E50" stroke-width="3" stroke-linecap="round" stroke-linejoin="round"/>
<path d="M16.4386 5.6591C17.1749 5.6591 17.7719 5.06214 17.7719 4.32576C17.7719 3.58939 17.1749 2.99243 16.4386 2.99243C15.7022 2.99243 15.1052 3.58939 15.1052 4.32576C15.1052 5.06214 15.7022 5.6591 16.4386 5.6591Z" stroke="#1D2E50" stroke-width="3"/>
</svg>
