<svg width="33" height="33" viewBox="0 0 33 33" fill="none" xmlns="http://www.w3.org/2000/svg">
<path d="M16.4388 2.99243C9.0748 2.99243 3.10547 8.96176 3.10547 16.3258C3.10547 23.6898 9.0748 29.6591 16.4388 29.6591C23.8028 29.6591 29.7721 23.6898 29.7721 16.3258C29.7721 8.96176 23.8028 2.99243 16.4388 2.99243Z" stroke="#1D2E50" stroke-width="3" stroke-linecap="round" stroke-linejoin="round"/>
<path d="M6.13354 24.787C6.13354 24.787 9.10555 20.9924 16.4389 20.9924C23.7722 20.9924 26.7455 24.787 26.7455 24.787M16.4389 16.3257C17.4997 16.3257 18.5172 15.9043 19.2673 15.1541C20.0175 14.404 20.4389 13.3865 20.4389 12.3257C20.4389 11.2648 20.0175 10.2474 19.2673 9.49726C18.5172 8.74711 17.4997 8.32568 16.4389 8.32568C15.378 8.32568 14.3606 8.74711 13.6105 9.49726C12.8603 10.2474 12.4389 11.2648 12.4389 12.3257C12.4389 13.3865 12.8603 14.404 13.6105 15.1541C14.3606 15.9043 15.378 16.3257 16.4389 16.3257Z" stroke="#1D2E50" stroke-width="3" stroke-linecap="round" stroke-linejoin="round"/>
</svg>
