<svg width="60" height="61" viewBox="0 0 60 61" fill="none" xmlns="http://www.w3.org/2000/svg">
<path d="M16.6665 17.1672H19.9998V20.5006H16.6665V17.1672ZM16.6665 40.5006H19.9998V43.8339H16.6665V40.5006ZM39.9998 17.1672H43.3332V20.5006H39.9998V17.1672Z" fill="#1D2E50"/>
<path d="M10 10.5006H50V50.5006H10V10.5006Z" fill="white" stroke="#1D2E50" stroke-width="2" stroke-linejoin="round"/>
<path d="M16.6665 17.1672H19.9998V20.5006H16.6665V17.1672ZM16.6665 40.5006H19.9998V43.8339H16.6665V40.5006ZM39.9998 17.1672H43.3332V20.5006H39.9998V17.1672Z" fill="#1D2E50" stroke="#1D2E50" stroke-width="2" stroke-linejoin="round"/>
<path d="M14.9998 34.6673C15.4601 34.6673 15.8332 34.2942 15.8332 33.8339C15.8332 33.3737 15.4601 33.0006 14.9998 33.0006C14.5396 33.0006 14.1665 33.3737 14.1665 33.8339C14.1665 34.2942 14.5396 34.6673 14.9998 34.6673Z" fill="#1D2E50"/>
<path d="M13.3333 33.0007C13.7936 33.0007 14.1667 32.6276 14.1667 32.1673C14.1667 31.7071 13.7936 31.334 13.3333 31.334C12.8731 31.334 12.5 31.7071 12.5 32.1673C12.5 32.6276 12.8731 33.0007 13.3333 33.0007Z" fill="#1D2E50"/>
<path d="M16.6668 33.0007C17.1271 33.0007 17.5002 32.6276 17.5002 32.1673C17.5002 31.7071 17.1271 31.334 16.6668 31.334C16.2066 31.334 15.8335 31.7071 15.8335 32.1673C15.8335 32.6276 16.2066 33.0007 16.6668 33.0007Z" fill="#1D2E50"/>
<path d="M28.3333 39.6673C28.7936 39.6673 29.1667 39.2942 29.1667 38.8339C29.1667 38.3737 28.7936 38.0006 28.3333 38.0006C27.8731 38.0006 27.5 38.3737 27.5 38.8339C27.5 39.2942 27.8731 39.6673 28.3333 39.6673Z" fill="#1D2E50"/>
<path d="M33.3333 33.0007C33.7936 33.0007 34.1667 32.6276 34.1667 32.1673C34.1667 31.7071 33.7936 31.334 33.3333 31.334C32.8731 31.334 32.5 31.7071 32.5 32.1673C32.5 32.6276 32.8731 33.0007 33.3333 33.0007Z" fill="#1D2E50"/>
<path d="M33.3333 24.6673C33.7936 24.6673 34.1667 24.2942 34.1667 23.8339C34.1667 23.3737 33.7936 23.0006 33.3333 23.0006C32.8731 23.0006 32.5 23.3737 32.5 23.8339C32.5 24.2942 32.8731 24.6673 33.3333 24.6673Z" fill="#1D2E50"/>
<path d="M26.6668 14.6673C27.1271 14.6673 27.5002 14.2942 27.5002 13.8339C27.5002 13.3737 27.1271 13.0006 26.6668 13.0006C26.2066 13.0006 25.8335 13.3737 25.8335 13.8339C25.8335 14.2942 26.2066 14.6673 26.6668 14.6673Z" fill="#1D2E50"/>
<path d="M38.3333 28.0007C38.7936 28.0007 39.1667 27.6276 39.1667 27.1673C39.1667 26.7071 38.7936 26.334 38.3333 26.334C37.8731 26.334 37.5 26.7071 37.5 27.1673C37.5 27.6276 37.8731 28.0007 38.3333 28.0007Z" fill="#1D2E50"/>
<path d="M43.3333 28.0007C43.7936 28.0007 44.1667 27.6276 44.1667 27.1673C44.1667 26.7071 43.7936 26.334 43.3333 26.334C42.8731 26.334 42.5 26.7071 42.5 27.1673C42.5 27.6276 42.8731 28.0007 43.3333 28.0007Z" fill="#1D2E50"/>
<path d="M43.3333 38.0007C43.7936 38.0007 44.1667 37.6276 44.1667 37.1673C44.1667 36.7071 43.7936 36.334 43.3333 36.334C42.8731 36.334 42.5 36.7071 42.5 37.1673C42.5 37.6276 42.8731 38.0007 43.3333 38.0007Z" fill="#1D2E50"/>
<path d="M44.9998 41.3339C45.4601 41.3339 45.8332 40.9608 45.8332 40.5006C45.8332 40.0403 45.4601 39.6672 44.9998 39.6672C44.5396 39.6672 44.1665 40.0403 44.1665 40.5006C44.1665 40.9608 44.5396 41.3339 44.9998 41.3339Z" fill="#1D2E50"/>
<path d="M46.6668 48.0007C47.1271 48.0007 47.5002 47.6276 47.5002 47.1673C47.5002 46.7071 47.1271 46.334 46.6668 46.334C46.2066 46.334 45.8335 46.7071 45.8335 47.1673C45.8335 47.6276 46.2066 48.0007 46.6668 48.0007Z" fill="#1D2E50"/>
<path d="M26.6668 48.0007C27.1271 48.0007 27.5002 47.6276 27.5002 47.1673C27.5002 46.7071 27.1271 46.334 26.6668 46.334C26.2066 46.334 25.8335 46.7071 25.8335 47.1673C25.8335 47.6276 26.2066 48.0007 26.6668 48.0007Z" fill="#1D2E50"/>
<path d="M36.6668 48.0007C37.1271 48.0007 37.5002 47.6276 37.5002 47.1673C37.5002 46.7071 37.1271 46.334 36.6668 46.334C36.2066 46.334 35.8335 46.7071 35.8335 47.1673C35.8335 47.6276 36.2066 48.0007 36.6668 48.0007Z" fill="#1D2E50"/>
<path d="M38.3333 46.3339C38.7936 46.3339 39.1667 45.9608 39.1667 45.5006C39.1667 45.0403 38.7936 44.6672 38.3333 44.6672C37.8731 44.6672 37.5 45.0403 37.5 45.5006C37.5 45.9608 37.8731 46.3339 38.3333 46.3339Z" fill="#1D2E50"/>
<path d="M36.6668 44.6673C37.1271 44.6673 37.5002 44.2942 37.5002 43.8339C37.5002 43.3737 37.1271 43.0006 36.6668 43.0006C36.2066 43.0006 35.8335 43.3737 35.8335 43.8339C35.8335 44.2942 36.2066 44.6673 36.6668 44.6673Z" fill="#1D2E50"/>
<path d="M13.3333 28.0007C13.7936 28.0007 14.1667 27.6276 14.1667 27.1673C14.1667 26.7071 13.7936 26.334 13.3333 26.334C12.8731 26.334 12.5 26.7071 12.5 27.1673C12.5 27.6276 12.8731 28.0007 13.3333 28.0007Z" fill="#1D2E50"/>
<path d="M33.3333 46.3339C33.7936 46.3339 34.1667 45.9608 34.1667 45.5006C34.1667 45.0403 33.7936 44.6672 33.3333 44.6672C32.8731 44.6672 32.5 45.0403 32.5 45.5006C32.5 45.9608 32.8731 46.3339 33.3333 46.3339Z" fill="#1D2E50"/>
<path d="M10 10.5006H50V50.5006H10V10.5006Z" stroke="#1D2E50" stroke-width="2" stroke-linejoin="round"/>
<path d="M13.3335 13.834H23.3335V23.834H13.3335V13.834Z" stroke="#1D2E50" stroke-width="2" stroke-linejoin="round"/>
<path d="M16.6668 17.1672H20.0002V20.5006H16.6668V17.1672ZM13.3335 37.1672H23.3335V47.1672H13.3335V37.1672Z" stroke="#1D2E50" stroke-width="2" stroke-linejoin="round"/>
<path d="M16.6665 40.5007H19.9998V43.834H16.6665V40.5007ZM36.6665 13.834H46.6665V23.834H36.6665V13.834Z" stroke="#1D2E50" stroke-width="2" stroke-linejoin="round"/>
<path d="M40 17.1672H43.3333V20.5006H40V17.1672Z" stroke="#1D2E50" stroke-width="2" stroke-linejoin="round"/>
<path d="M15 30.5006V28.834H21.6667M16.6667 28.834V27.1673M20 28.834V33.834M20 32.1673H21.6667M31.6667 27.1673V25.5006M46.6667 28.834H45M35 35.5006H36.6667V33.834M23.3333 27.1673H25M28.3333 27.1673H33.3333M31.6667 13.834V17.1673H30M30 17.1673V23.834M30 17.1673H26.6667M30 22.1673H26.6667V23.834" stroke="#1D2E50" stroke-width="2" stroke-linecap="round" stroke-linejoin="round"/>
<path d="M30.0002 18.8339H28.3335V15.5006M23.3335 30.5006H30.0002M25.0002 30.5006V33.8339H23.3335M28.3335 30.5006V32.1673M26.6668 37.1673V35.5006H31.6668V40.5006H35.0002V38.8339H41.6668V47.1673" stroke="#1D2E50" stroke-width="2" stroke-linecap="round" stroke-linejoin="round"/>
<path d="M29.9998 33.834V37.1673H34.9998M38.3332 33.834H34.9998V40.5007H36.6665M39.9998 28.834V32.1673H41.6665M41.6665 32.1673V35.5007H39.9998V38.834M41.6665 32.1673V30.5007H43.3332M43.3332 42.1673H39.9998V43.834M26.6665 43.834H28.3332V45.5007H29.9998V42.1673M46.6665 27.1673V32.1673H44.9998M36.6665 30.5007V28.834M46.6665 35.5007V37.1673M44.9998 43.834H46.6665M33.3332 18.834V20.5007" stroke="#1D2E50" stroke-width="2" stroke-linecap="round" stroke-linejoin="round"/>
</svg>
