<svg width="60" height="61" viewBox="0 0 60 61" fill="none" xmlns="http://www.w3.org/2000/svg">
<path d="M55 30.5006C55 21.0731 55 16.3581 52.07 13.4306C49.14 10.5031 44.4275 10.5006 35 10.5006H25C15.5725 10.5006 10.8575 10.5006 7.93 13.4306C5.0025 16.3606 5 21.0731 5 30.5006C5 39.9281 5 44.6431 7.93 47.5706C10.86 50.4981 15.5725 50.5006 25 50.5006H35C44.4275 50.5006 49.1425 50.5006 52.07 47.5706C53.705 45.9381 54.4275 43.7506 54.745 40.5006M25 40.5006H15M35 40.5006H31.25M5 25.5006H17.5M55 25.5006H27.5" stroke="#1D2E50" stroke-width="1.5" stroke-linecap="round"/>
</svg>
