<svg width="60" height="61" viewBox="0 0 60 61" fill="none" xmlns="http://www.w3.org/2000/svg">
<path d="M24.9501 39.25H27.4501V31.75H34.9501V29.25H27.4501V21.75H24.9501V29.25H17.4501V31.75H24.9501V39.25ZM12.7426 48C11.5926 48 10.6317 47.615 9.86008 46.845C9.08842 46.075 8.70342 45.1142 8.70508 43.9625V17.0375C8.70508 15.8875 9.09008 14.9275 9.86008 14.1575C10.6301 13.3875 11.5901 13.0017 12.7401 13H39.6651C40.8151 13 41.7751 13.3858 42.5451 14.1575C43.3151 14.9292 43.7009 15.89 43.7026 17.04V28.6725L51.2976 21.0775V39.9225L43.7026 32.3275V43.9625C43.7026 45.1125 43.3167 46.0733 42.5451 46.845C41.7734 47.6167 40.8134 48.0017 39.6651 48H12.7426Z" fill="#1D2E50"/>
</svg>
